<svg xmlns="http://www.w3.org/2000/svg" viewBox="0 0 28 28"><style>.st0{fill:#fff}.st1{fill:none}</style><path class="st0" d="M14 0C6.3 0 0 6.3 0 14s6.3 14 14 14 14-6.3 14-14S21.7 0 14 0z"/><path class="st1" d="M19.3 6.9H8.7c-1 0-1.8.8-1.8 1.8v10.6c0 1 .8 1.8 1.8 1.8h10.6c1 0 1.8-.8 1.8-1.8V8.7c0-1-.8-1.8-1.8-1.8zM14 11.2c1.6 0 2.8 1.2 2.8 2.7s-1.3 2.7-2.8 2.7c-1.6 0-2.8-1.2-2.8-2.7 0-1.4 1.2-2.7 2.8-2.7zm5.3 7.7c0 .3-.1.4-.4.4H9.1c-.3 0-.4-.1-.4-.4v-6.2l1.1.2c-.1.4-.2.8-.2 1.2 0 2.3 2 4.3 4.4 4.3 2.4 0 4.4-1.9 4.4-4.3 0-.4-.1-.8-.2-1.2l1.1-.2v6.2zm0-8c0 .2-.2.4-.4.4h-1.8c-.2 0-.4-.2-.4-.4V9.1c0-.2.2-.4.4-.4h1.8c.2 0 .4.2.4.4v1.8z"/></svg>