<svg id="Layer_1" xmlns="http://www.w3.org/2000/svg" viewBox="0 0 327 45.98958"><style>.st0{fill:#f44}</style><path class="st0" d="M163.626 19.882a5.8 5.8 0 0 0-4.311 1.764 6.095 6.095 0 0 0-1.718 4.416 5.904 5.904 0 0 0 1.726 4.327 6.044 6.044 0 0 0 4.454 1.731 6.873 6.873 0 0 0 3.03-.625 5.844 5.844 0 0 0 2.21-1.933l.23-.327-2.897-1.36-.166.162a3.33 3.33 0 0 1-2.427.987 2.873 2.873 0 0 1-1.915-.616c-.4-.329-.687-.774-.823-1.273h8.78l.017-.86a6.362 6.362 0 0 0-1.724-4.63 6.003 6.003 0 0 0-4.466-1.763zm-2.358 4.41c.164-.318.391-.598.668-.823a2.953 2.953 0 0 1 1.826-.582 2.777 2.777 0 0 1 1.674.514c.33.229.598.534.783.89h-4.951zM177.5 19.889a6.882 6.882 0 0 0-2.946.757 4.035 4.035 0 0 1-3.43 0v17.8h3.788v-6.888a6.122 6.122 0 1 0 2.588-11.67zm0 8.458a2.336 2.336 0 1 1 0-4.671 2.336 2.336 0 0 1 0 4.67zM152.522 20.464a6.122 6.122 0 1 0-2.588 11.67 6.882 6.882 0 0 0 2.947-.757 4.035 4.035 0 0 1 3.43 0v-17.8h-3.789v6.887zm-2.588 7.883a2.336 2.336 0 1 1 0-4.671 2.336 2.336 0 0 1 0 4.67zM124.658 13.576h3.788v18.053h-3.788zM136.463 19.888a6.123 6.123 0 0 0-6.123 6.123v5.618h3.788v-5.618a2.336 2.336 0 0 1 4.671 0v5.618h3.788v-5.618a6.123 6.123 0 0 0-6.124-6.123zM190.644 19.882a5.8 5.8 0 0 0-4.31 1.764 6.095 6.095 0 0 0-1.718 4.416 5.904 5.904 0 0 0 1.726 4.327 6.044 6.044 0 0 0 4.454 1.731 6.873 6.873 0 0 0 3.03-.625 5.844 5.844 0 0 0 2.21-1.933l.23-.327-2.898-1.36-.166.162a3.33 3.33 0 0 1-2.426.987 2.873 2.873 0 0 1-1.915-.616c-.4-.329-.687-.774-.824-1.273h8.781l.017-.86a6.362 6.362 0 0 0-1.724-4.63 6.003 6.003 0 0 0-4.467-1.763zm-2.358 4.41c.165-.318.392-.598.668-.823a2.953 2.953 0 0 1 1.827-.582 2.777 2.777 0 0 1 1.674.514c.33.229.598.534.782.89h-4.95zM204.39 19.888a6.123 6.123 0 0 0-6.124 6.123v5.618h3.787v-5.618a2.336 2.336 0 0 1 4.672 0v5.618h3.788v-5.618a6.123 6.123 0 0 0-6.124-6.123zM220.539 20.464a6.122 6.122 0 1 0-2.588 11.67 6.882 6.882 0 0 0 2.946-.757 4.035 4.035 0 0 1 3.43 0v-17.8h-3.788v6.887zm-2.588 7.883a2.336 2.336 0 1 1 0-4.671 2.336 2.336 0 0 1 0 4.67zM231.642 19.896a5.8 5.8 0 0 0-4.31 1.764 6.095 6.095 0 0 0-1.719 4.416 5.904 5.904 0 0 0 1.726 4.326 6.044 6.044 0 0 0 4.455 1.732 6.873 6.873 0 0 0 3.029-.625 5.844 5.844 0 0 0 2.21-1.934l.23-.326-2.897-1.36-.166.161a3.33 3.33 0 0 1-2.427.988 2.873 2.873 0 0 1-1.915-.616c-.4-.33-.687-.774-.823-1.274h8.78l.018-.86a6.362 6.362 0 0 0-1.724-4.628 6.003 6.003 0 0 0-4.467-1.764zm-2.358 4.409c.164-.317.392-.597.668-.823a2.953 2.953 0 0 1 1.826-.58 2.777 2.777 0 0 1 1.675.513c.33.229.598.534.782.89h-4.951zM245.387 19.888a6.123 6.123 0 0 0-6.124 6.123v5.618h3.788v-5.618a2.336 2.336 0 0 1 4.671 0v5.618h3.788v-5.618a6.123 6.123 0 0 0-6.123-6.123zM256.94 16.606h-3.789v9.405a6.123 6.123 0 0 0 6.124 6.123v-3.787a2.336 2.336 0 0 1-2.336-2.336v-1.83h2.336v-3.787h-2.336v-3.788zM71.063 19.888a6.123 6.123 0 1 0 0 12.246 6.123 6.123 0 0 0 0-12.246zm0 8.459a2.335 2.335 0 1 1 0-4.671 2.335 2.335 0 0 1 0 4.67zM86.655 26.011a2.336 2.336 0 0 1-4.671 0v-5.618h-3.788v5.618a6.123 6.123 0 0 0 12.247 0v-5.618h-3.788v5.618zM95.746 16.606h-3.788v9.405a6.123 6.123 0 0 0 6.123 6.123v-3.787a2.336 2.336 0 0 1-2.335-2.336v-1.83h2.335v-3.787h-2.335v-3.788zM106.036 19.888c-.802 0-1.595.157-2.336.463v-6.775h-3.788V31.63h3.788v-5.618a2.336 2.336 0 0 1 4.671 0v5.618h3.788v-5.618a6.123 6.123 0 0 0-6.123-6.123z"/><path class="st0" d="M67.442 16.101v-2.525h-3.79v2.525a3.43 3.43 0 0 1-6.862 0v-2.525H53v2.525a7.232 7.232 0 0 0 5.327 6.967v8.561h3.788v-8.561a7.232 7.232 0 0 0 5.327-6.967zM298.983 26.018v5.611h3.788v-5.61a2.336 2.336 0 0 1 2.335-2.336v-3.787a6.123 6.123 0 0 0-6.123 6.122zM310.577 16.606h-3.788v9.405a6.123 6.123 0 0 0 6.124 6.123v-3.787a2.336 2.336 0 0 1-2.336-2.336v-1.83h2.336v-3.787h-2.336v-3.788zM323.212 20.393v5.618a2.336 2.336 0 0 1-4.671 0v-5.618h-3.788v5.618a6.125 6.125 0 0 0 8.46 5.66v.652a2.336 2.336 0 0 1-2.336 2.336v3.787A6.123 6.123 0 0 0 327 32.324v-11.93h-3.788zM291.094 19.888a6.123 6.123 0 1 0 2.436 11.741h3.687v-5.618a6.123 6.123 0 0 0-6.123-6.123zm0 8.459a2.335 2.335 0 1 1 0-4.671 2.335 2.335 0 0 1 0 4.67zM272.143 19.595v.016l.001-.016h-.001z"/><path class="st0" d="M278.763 13a6.619 6.619 0 0 0-6.619 6.595v.019l-.001.004v12.011h3.79v-6.032A6.617 6.617 0 1 0 278.763 13zm0 9.453a2.832 2.832 0 0 1-2.83-2.738c0-.032-.004-.063-.004-.096v-.024a2.834 2.834 0 1 1 2.834 2.858z"/><path class="st0" d="M275.933 19.715v-.12h-.003l-.002.024c0 .033.004.064.005.096zM22.995 0C10.295 0 0 10.295 0 22.995S10.295 45.99 22.995 45.99 45.99 35.694 45.99 22.995 35.694 0 22.995 0zm-7.292 11.053a2.324 2.324 0 1 1 0 4.648 2.324 2.324 0 0 1 0-4.648zm2.324 24.49h-4.648V21.893a8.893 8.893 0 0 1-6.553-8.568v-2.974h4.648v2.974a4.23 4.23 0 0 0 8.458 0v-2.974h4.648v2.974a8.893 8.893 0 0 1-6.553 8.568v13.648zm6.813 0h-4.648v-7.948h4.648v7.947zm-2.324-9.203a2.324 2.324 0 1 1 0-4.648 2.324 2.324 0 0 1 0 4.648zm11.34 4.647a6.938 6.938 0 0 1-2.324-.4v4.955h-4.647V24.264h.006c-.003-.083-.006-.165-.006-.248a6.971 6.971 0 1 1 6.971 6.971z"/><circle class="st0" cx="33.856" cy="24.016" r="2.324"/></svg>