<svg id="Layer_1" xmlns="http://www.w3.org/2000/svg" viewBox="0 0 100 100"><style>.st0{fill:#f44}</style><path class="st0" d="M50 0C22.386 0 0 22.386 0 50s22.386 50 50 50 50-22.386 50-50S77.614 0 50 0zM34.145 24.034a5.053 5.053 0 1 1-5.053 5.053 5.053 5.053 0 0 1 5.053-5.053zm5.053 53.25H29.092V47.606a19.336 19.336 0 0 1-14.25-18.63v-6.468h10.106v6.468a9.196 9.196 0 0 0 18.393 0v-6.468h10.106v6.468a19.336 19.336 0 0 1-14.25 18.63v29.676zm14.814 0H43.906V60.001h10.106v17.281zm-5.053-20.01a5.053 5.053 0 1 1 0-10.106 5.053 5.053 0 0 1 0 10.105zm24.658 10.105c-1.721.001-3.43-.293-5.053-.869v10.773H58.458V52.76h.014c-.006-.18-.014-.359-.014-.54 0-8.371 6.787-15.158 15.16-15.158s15.158 6.787 15.158 15.159c0 8.371-6.787 15.158-15.159 15.158z"/><circle class="st0" cx="73.617" cy="52.221" r="5.053"/></svg>