<svg id="Layer_1" xmlns="http://www.w3.org/2000/svg" viewBox="0 0 199.99126 74.43078"><style>.st0{fill:#f44}</style><path class="st0" d="M117.948 34.417a4.975 4.975 0 0 0-3.697 1.514 5.23 5.23 0 0 0-1.474 3.788 5.065 5.065 0 0 0 1.48 3.712 5.184 5.184 0 0 0 3.821 1.485 5.895 5.895 0 0 0 2.598-.536 5.013 5.013 0 0 0 1.896-1.659l.197-.28-2.484-1.166-.143.138a2.856 2.856 0 0 1-2.081.847 2.464 2.464 0 0 1-1.643-.528 2.152 2.152 0 0 1-.706-1.093h7.532l.014-.738a5.458 5.458 0 0 0-1.478-3.97 5.148 5.148 0 0 0-3.832-1.514zm-2.022 3.783c.14-.272.336-.512.573-.706a2.533 2.533 0 0 1 1.566-.498 2.382 2.382 0 0 1 1.436.44c.283.197.513.459.671.764h-4.246zM129.849 34.423a5.902 5.902 0 0 0-2.527.65 3.46 3.46 0 0 1-2.942 0v15.27h3.249v-5.909a5.252 5.252 0 1 0 2.22-10.01zm0 7.256a2.004 2.004 0 1 1 2.004-2.003 2.006 2.006 0 0 1-2.004 2.003zM108.424 34.917a5.252 5.252 0 1 0-2.22 10.011 5.903 5.903 0 0 0 2.528-.65 3.46 3.46 0 0 1 2.941 0v-15.27h-3.249v5.909zm-2.22 6.762a2.004 2.004 0 1 1 2.004-2.003 2.006 2.006 0 0 1-2.004 2.003zM84.524 29.008h3.249v15.487h-3.249zM94.65 34.423a5.252 5.252 0 0 0-5.253 5.253v4.819h3.25v-4.82a2.004 2.004 0 0 1 4.006 0v4.82h3.25v-4.82c0-2.9-2.352-5.252-5.253-5.252zM141.124 34.417a4.975 4.975 0 0 0-3.698 1.514 5.23 5.23 0 0 0-1.474 3.788 5.065 5.065 0 0 0 1.48 3.712 5.184 5.184 0 0 0 3.822 1.485 5.895 5.895 0 0 0 2.598-.536 5.013 5.013 0 0 0 1.896-1.659l.197-.28-2.485-1.166-.142.138a2.856 2.856 0 0 1-2.082.847 2.464 2.464 0 0 1-1.643-.528 2.152 2.152 0 0 1-.706-1.093h7.532l.014-.738a5.458 5.458 0 0 0-1.478-3.97 5.148 5.148 0 0 0-3.831-1.514zM139.1 38.2c.141-.272.336-.512.573-.706a2.533 2.533 0 0 1 1.567-.498 2.382 2.382 0 0 1 1.436.44c.282.197.513.459.67.764h-4.246zM152.913 34.423a5.252 5.252 0 0 0-5.252 5.253v4.819h3.249v-4.82a2.004 2.004 0 0 1 4.007 0v4.82h3.248v-4.82c0-2.9-2.351-5.252-5.252-5.252zM166.765 34.917a5.252 5.252 0 1 0-2.22 10.011 5.903 5.903 0 0 0 2.528-.65 3.46 3.46 0 0 1 2.941 0v-15.27h-3.249v5.909zm-2.22 6.762a2.004 2.004 0 1 1 2.004-2.003 2.006 2.006 0 0 1-2.004 2.003zM176.29 34.43a4.975 4.975 0 0 0-3.698 1.513 5.23 5.23 0 0 0-1.474 3.788 5.065 5.065 0 0 0 1.48 3.712 5.184 5.184 0 0 0 3.821 1.485 5.895 5.895 0 0 0 2.598-.536 5.013 5.013 0 0 0 1.896-1.659l.197-.28-2.484-1.167-.143.139a2.856 2.856 0 0 1-2.081.847 2.464 2.464 0 0 1-1.643-.528 2.152 2.152 0 0 1-.706-1.093h7.532l.014-.738a5.458 5.458 0 0 0-1.478-3.97 5.148 5.148 0 0 0-3.832-1.514zm-2.023 3.782c.14-.272.336-.512.573-.706a2.533 2.533 0 0 1 1.566-.499 2.382 2.382 0 0 1 1.436.441c.283.196.513.458.671.764h-4.246zM188.079 34.423a5.252 5.252 0 0 0-5.253 5.253v4.819h3.25v-4.82a2.004 2.004 0 0 1 4.006 0v4.82h3.249v-4.82c0-2.9-2.351-5.252-5.252-5.252zM197.988 31.607h-3.25v8.069c0 2.9 2.352 5.252 5.253 5.252V41.68a2.004 2.004 0 0 1-2.003-2.003v-1.57h2.003v-3.25h-2.003v-3.249zM95.453 15.608a5.253 5.253 0 1 0 5.252 5.253c0-2.901-2.351-5.253-5.252-5.253zm0 7.256a2.004 2.004 0 1 1 2.003-2.004 2.004 2.004 0 0 1-2.003 2.004zM108.827 20.86a2.004 2.004 0 0 1-4.007 0v-4.819h-3.248v4.82a5.252 5.252 0 1 0 10.504 0v-4.82h-3.249v4.82zM116.625 12.792h-3.25v8.068c0 2.901 2.352 5.253 5.253 5.253v-3.249a2.004 2.004 0 0 1-2.003-2.004v-1.57h2.003v-3.249h-2.003v-3.249zM125.45 15.608c-.687 0-1.367.134-2.003.397v-5.812H120.2V25.68h3.248v-4.82a2.004 2.004 0 0 1 4.007 0v4.82h3.25v-4.82c0-2.9-2.352-5.252-5.253-5.252z"/><path class="st0" d="M92.347 12.359v-2.166h-3.251v2.166a2.942 2.942 0 0 1-5.885.006V10.193H79.96v2.166a6.204 6.204 0 0 0 4.569 5.976v7.345h3.249v-7.345a6.204 6.204 0 0 0 4.569-5.976zM37.214 0C16.66 0-.002 16.66-.003 37.214S16.657 74.43 37.21 74.43s37.216-16.66 37.217-37.214v-.002C74.428 16.662 57.767 0 37.214 0zm-11.8 17.888a3.76 3.76 0 1 1-3.762 3.761 3.76 3.76 0 0 1 3.761-3.76zm3.76 39.634h-7.522V35.434a14.392 14.392 0 0 1-10.605-13.866v-4.814h7.521v4.814a6.845 6.845 0 1 0 13.69.005v-4.819h7.521v4.814a14.392 14.392 0 0 1-10.605 13.866v22.088zm11.026 0h-7.522V44.66H40.2v12.862zM36.439 42.63a3.761 3.761 0 1 1 3.76-3.761 3.76 3.76 0 0 1-3.76 3.761zm18.353 7.522c-1.282 0-2.554-.218-3.761-.647v8.018h-7.522V39.27h.01c-.004-.133-.01-.266-.01-.4 0-6.232 5.052-11.283 11.283-11.283s11.282 5.052 11.282 11.283-5.052 11.282-11.282 11.282z"/><circle class="st0" cx="54.792" cy="38.868" r="3.761"/><path class="st0" d="M107.546 58.853v4.813h3.249v-4.813c0-1.107.897-2.004 2.003-2.004V53.6a5.252 5.252 0 0 0-5.252 5.253zM117.491 50.778h-3.249v8.069c0 2.9 2.352 5.252 5.252 5.252V60.85a2.004 2.004 0 0 1-2.003-2.003v-1.57h2.003v-3.25h-2.003v-3.249zM128.329 54.027v4.82a2.004 2.004 0 0 1-4.007 0v-4.82h-3.249v4.82a5.253 5.253 0 0 0 7.256 4.856v.559a2.004 2.004 0 0 1-2.004 2.003v3.25c2.901 0 5.253-2.352 5.253-5.253V54.027h-3.25zM100.78 53.594a5.253 5.253 0 1 0 2.089 10.072h3.162v-4.82c0-2.9-2.351-5.252-5.252-5.252zm0 7.256a2.004 2.004 0 1 1 2.003-2.003 2.004 2.004 0 0 1-2.004 2.003zM84.524 53.343v.013l.001-.013h-.001z"/><path class="st0" d="M90.202 47.685a5.678 5.678 0 0 0-5.677 5.658v10.323h3.25v-5.175a5.676 5.676 0 1 0 2.427-10.806zm0 8.11a2.43 2.43 0 0 1-2.427-2.35c0-.027-.004-.054-.004-.082l.001-.02a2.43 2.43 0 1 1 2.43 2.451z"/><path class="st0" d="M87.775 53.445v-.102h-.003v.02c0 .028.002.055.003.082z"/></svg>