<?xml version="1.0" encoding="utf-8"?>
<!-- Generator: Adobe Illustrator 19.2.0, SVG Export Plug-In . SVG Version: 6.00 Build 0)  -->
<svg version="1.1" xmlns="http://www.w3.org/2000/svg" xmlns:xlink="http://www.w3.org/1999/xlink" x="0px" y="0px"
	 viewBox="0 0 28 28" style="enable-background:new 0 0 28 28;" xml:space="preserve">
<style type="text/css">
	.st0{fill:#FFFFFF;}
	.st1{fill:none;}
</style>
<g>
	<g>
		<path class="st0" d="M14,0C6.3,0,0,6.3,0,14c0,7.7,6.3,14,14,14s14-6.3,14-14C28,6.3,21.7,0,14,0z"/>
	</g>
	<path class="st1" d="M19.3,6.9H8.7c-1,0-1.8,0.8-1.8,1.8v10.6c0,1,0.8,1.8,1.8,1.8h10.6c1,0,1.8-0.8,1.8-1.8V8.7
		C21.1,7.7,20.3,6.9,19.3,6.9z M14,11.2c1.6,0,2.8,1.2,2.8,2.7s-1.3,2.7-2.8,2.7c-1.6,0-2.8-1.2-2.8-2.7
		C11.2,12.5,12.4,11.2,14,11.2z M19.3,18.9c0,0.3-0.1,0.4-0.4,0.4H9.1c-0.3,0-0.4-0.1-0.4-0.4v-6.2l1.1,0.2
		c-0.1,0.4-0.2,0.8-0.2,1.2c0,2.3,2,4.3,4.4,4.3c2.4,0,4.4-1.9,4.4-4.3c0-0.4-0.1-0.8-0.2-1.2l1.1-0.2L19.3,18.9L19.3,18.9z
		 M19.3,10.9c0,0.2-0.2,0.4-0.4,0.4h-1.8c-0.2,0-0.4-0.2-0.4-0.4V9.1c0-0.2,0.2-0.4,0.4-0.4h1.8c0.2,0,0.4,0.2,0.4,0.4
		C19.3,9.1,19.3,10.9,19.3,10.9z"/>
</g>
</svg>
