<?xml version="1.0" encoding="utf-8"?>
<!-- Generator: Adobe Illustrator 19.2.0, SVG Export Plug-In . SVG Version: 6.00 Build 0)  -->
<svg version="1.1" xmlns="http://www.w3.org/2000/svg" xmlns:xlink="http://www.w3.org/1999/xlink" x="0px" y="0px"
	 viewBox="0 0 28 28" style="enable-background:new 0 0 28 28;" xml:space="preserve">
<style type="text/css">
	.st0{fill:#FFFFFF;}
	.st1{fill:none;}
</style>
<g>
	<g>
		<path class="st0" d="M14,0C6.3,0,0,6.3,0,14c0,7.7,6.3,14,14,14s14-6.3,14-14C28,6.3,21.7,0,14,0z"/>
	</g>
	<path class="st1" d="M12,21.8h3.2V14h2.1l0.3-2.7h-2.4l0-1.3c0-0.7,0.1-1.1,1.1-1.1h1.3V6.2h-2.1c-2.6,0-3.5,1.3-3.5,3.5v1.6h-1.6
		V14H12C12,14,12,21.8,12,21.8z"/>
</g>
</svg>
