<?xml version="1.0" encoding="utf-8"?>
<!-- Generator: Adobe Illustrator 19.2.0, SVG Export Plug-In . SVG Version: 6.00 Build 0)  -->
<svg version="1.1" xmlns="http://www.w3.org/2000/svg" xmlns:xlink="http://www.w3.org/1999/xlink" x="0px" y="0px"
	 viewBox="0 0 28 28" style="enable-background:new 0 0 28 28;" xml:space="preserve">
<style type="text/css">
	.st0{fill:#FFFFFF;}
	.st1{fill:none;}
</style>
<g>
	<g>
		<path class="st0" d="M14,0C6.3,0,0,6.3,0,14c0,7.7,6.3,14,14,14s14-6.3,14-14C28,6.3,21.7,0,14,0z"/>
	</g>
	<path class="st1" d="M21,10.9c0,4.1-2.3,7.1-5.6,7.1c-1.1,0-2.2-0.6-2.5-1.3c0,0-0.6,2.4-0.7,2.9c-0.4,1.6-1.8,3.3-1.9,3.4
		c-0.1,0.1-0.2,0.1-0.2-0.1c0-0.2-0.4-2.3,0-3.9c0.2-0.8,1.3-5.7,1.3-5.7S11,12.7,11,11.7c0-1.5,0.9-2.7,2-2.7
		c0.9,0,1.4,0.7,1.4,1.6c0,1-0.6,2.4-0.9,3.7c-0.3,1.1,0.6,2,1.6,2c2,0,3.3-2.5,3.3-5.5c0-2.3-1.5-4-4.3-4C11,6.7,9,9.1,9,11.7
		c0,0.9,0.3,1.5,0.7,2c0.2,0.2,0.2,0.3,0.1,0.6c-0.1,0.2-0.2,0.7-0.2,0.8c-0.1,0.3-0.3,0.4-0.5,0.3c-1.5-0.6-2.1-2.2-2.1-4
		C7,8.5,9.5,5,14.4,5C18.4,5,21,7.8,21,10.9z"/>
</g>
</svg>
